<svg width="100" height="100" viewBox="0 0 100 100" fill="none" xmlns="http://www.w3.org/2000/svg">
<path d="M49.9998 66.6666V91.6666M49.9998 66.6666L58.3332 75M49.9998 66.6666L41.6665 75" stroke="#E38E4E" stroke-width="2" stroke-linecap="round" stroke-linejoin="round"/>
<path d="M91.6668 55.6371C91.6668 65.3992 85.651 73.7729 77.0835 77.335M59.921 33.4467C62.4031 32.5796 65.0743 32.1078 67.8572 32.1078C70.5852 32.1078 73.2056 32.5612 75.6464 33.3958M75.6464 33.3958C74.3214 21.6405 64.2331 12.5 51.9843 12.5C38.8347 12.5 28.1747 23.0345 28.1747 36.0294C28.1747 38.9036 28.6962 41.6575 29.6508 44.2037M75.6464 33.3958C79.3527 34.6632 82.6439 36.8098 85.2639 39.5833M29.6508 44.2037C28.5314 43.9862 27.3745 43.8725 26.1906 43.8725C16.3284 43.8725 8.3335 51.7733 8.3335 61.5196C8.3335 69.4212 13.5887 76.11 20.8335 78.3588M29.6508 44.2037C32.0026 44.66 34.1888 45.5725 36.1113 46.8442" stroke="#E38E4E" stroke-width="2" stroke-linecap="round"/>
</svg>
